<svg width="21" height="20" viewBox="0 0 21 20" fill="none" xmlns="http://www.w3.org/2000/svg">
<path fill-rule="evenodd" clip-rule="evenodd" d="M20.1486 17.8751C18.7208 15.4067 16.5205 13.6367 13.9527 12.7976C16.5634 11.2434 17.814 8.13649 17.0081 5.20701C16.2021 2.27752 13.5382 0.247559 10.4999 0.247559C7.46156 0.247559 4.79768 2.27752 3.99171 5.20701C3.18574 8.13649 4.43634 11.2434 7.04708 12.7976C4.47926 13.6357 2.27895 15.4057 0.851138 17.8751C0.708591 18.1075 0.703415 18.399 0.837619 18.6364C0.971823 18.8737 1.22426 19.0195 1.49691 19.0172C1.76956 19.0148 2.01946 18.8647 2.14958 18.6251C3.91583 15.5726 7.0377 13.7501 10.4999 13.7501C13.9621 13.7501 17.084 15.5726 18.8502 18.6251C18.9803 18.8647 19.2302 19.0148 19.5029 19.0172C19.7755 19.0195 20.028 18.8737 20.1622 18.6364C20.2964 18.399 20.2912 18.1075 20.1486 17.8751ZM5.24989 7.00011C5.24989 4.10061 7.60039 1.75011 10.4999 1.75011C13.3994 1.75011 15.7499 4.10061 15.7499 7.00011C15.7499 9.8996 13.3994 12.2501 10.4999 12.2501C7.60168 12.247 5.25299 9.89832 5.24989 7.00011Z" fill="#121A0F"/>
</svg>
