<svg width="12" height="12" viewBox="0 0 12 12" fill="none" xmlns="http://www.w3.org/2000/svg">
<path d="M11.4155 4.32747L7.94421 3.82298L6.39246 0.67708C6.35007 0.590947 6.28035 0.521221 6.19421 0.478838C5.9782 0.372197 5.7157 0.461065 5.60769 0.67708L4.05593 3.82298L0.584642 4.32747C0.488939 4.34114 0.401439 4.38626 0.334446 4.45462C0.253457 4.53786 0.208827 4.64985 0.210366 4.76599C0.211904 4.88212 0.259483 4.99289 0.34265 5.07396L2.85417 7.52259L2.26081 10.9802C2.2469 11.0606 2.2558 11.1434 2.28651 11.219C2.31721 11.2946 2.3685 11.3601 2.43454 11.4081C2.50059 11.4561 2.57875 11.4846 2.66017 11.4904C2.74159 11.4962 2.82301 11.4791 2.89519 11.4409L6.00007 9.80853L9.10496 11.4409C9.18972 11.4861 9.28816 11.5011 9.38249 11.4847C9.62039 11.4437 9.78035 11.2181 9.73933 10.9802L9.14597 7.52259L11.6575 5.07396C11.7259 5.00696 11.771 4.91946 11.7846 4.82376C11.8216 4.5845 11.6548 4.36302 11.4155 4.32747Z" fill="#FE8C00"/>
</svg>
